HIERARCHY
ROOT Hips
{
	OFFSET 0.000000 0.000000 0.000000
	CHANNELS 6 Xposition Yposition Zposition Xrotation Yrotation Zrotation
	JOINT LeftUpLeg_virtual
	{
		OFFSET 0.000000 0.000000 0.000000
		CHANNELS 3 Xrotation Yrotation Zrotation
		JOINT LeftUpLeg
		{
			OFFSET 15.427100 -6.655098 0.678600
			CHANNELS 3 Xrotation Yrotation Zrotation
			JOINT LeftLeg
			{
				OFFSET 4.081073 -39.591068 13.024000
				CHANNELS 3 Xrotation Yrotation Zrotation
				JOINT LeftFoot
				{
					OFFSET -4.081074 -37.707932 -15.979700
					CHANNELS 3 Xrotation Yrotation Zrotation
					JOINT LeftToeBase
					{
						OFFSET 5.346399 -15.068900 20.645000
						CHANNELS 3 Xrotation Yrotation Zrotation
						JOINT LeftToe_End
						{
							OFFSET 2.754700 0.931300 11.300900
							CHANNELS 3 Xrotation Yrotation Zrotation
							End Site
							{
								OFFSET 0 0 0
							}
						}
					}
				}
			}
		}
	}
	JOINT RightUpLeg_virtual
	{
		OFFSET 0.000000 0.000000 0.000000
		CHANNELS 3 Xrotation Yrotation Zrotation
		JOINT RightUpLeg
		{
			OFFSET -15.569500 -6.655098 0.678600
			CHANNELS 3 Xrotation Yrotation Zrotation
			JOINT RightLeg
			{
				OFFSET -4.081825 -39.591045 13.023800
				CHANNELS 3 Xrotation Yrotation Zrotation
				JOINT RightFoot
				{
					OFFSET 4.081824 -37.707954 -15.979600
					CHANNELS 3 Xrotation Yrotation Zrotation
					JOINT RightToeBase
					{
						OFFSET -5.346400 -15.068900 20.645000
						CHANNELS 3 Xrotation Yrotation Zrotation
						JOINT RightToe_End
						{
							OFFSET -2.754700 0.931300 11.300900
							CHANNELS 3 Xrotation Yrotation Zrotation
							End Site
							{
								OFFSET 0 0 0
							}
						}
					}
				}
			}
		}
	}
	JOINT Spine_virtual
	{
		OFFSET 0.000000 0.000000 0.000000
		CHANNELS 3 Xrotation Yrotation Zrotation
		JOINT Spine
		{
			OFFSET -0.279200 12.230698 -2.892100
			CHANNELS 3 Xrotation Yrotation Zrotation
			JOINT Spine1
			{
				OFFSET -0.232667 10.192268 -1.242267
				CHANNELS 3 Xrotation Yrotation Zrotation
				JOINT Spine1_split
				{
					OFFSET -0.232667 10.192268 -1.242267
					CHANNELS 3 Xrotation Yrotation Zrotation
					JOINT Spine2
					{
						OFFSET -0.232667 10.192268 -1.242267
						CHANNELS 3 Xrotation Yrotation Zrotation
						JOINT Neck_virtual
						{
							OFFSET 0.000000 0.000000 0.000000
							CHANNELS 3 Xrotation Yrotation Zrotation
							JOINT Neck
							{
								OFFSET -0.418800 17.814194 8.416900
								CHANNELS 3 Xrotation Yrotation Zrotation
								JOINT Head
								{
									OFFSET 0.000000 7.031097 3.806800
									CHANNELS 3 Xrotation Yrotation Zrotation
									JOINT HeadTop_End
									{
										OFFSET 0.000000 24.646606 12.978600
										CHANNELS 3 Xrotation Yrotation Zrotation
										End Site
										{
											OFFSET 0 0 0
										}
									}
								}
							}
						}
						JOINT LeftShoulder_virtual
						{
							OFFSET 0.000000 0.000000 0.000000
							CHANNELS 3 Xrotation Yrotation Zrotation
							JOINT LeftShoulder
							{
								OFFSET 8.476499 7.247704 -3.868750
								CHANNELS 3 Xrotation Yrotation Zrotation
								JOINT LeftShoulder_split
								{
									OFFSET 8.476499 7.247704 -3.868750
									CHANNELS 3 Xrotation Yrotation Zrotation
									JOINT LeftArm
									{
										OFFSET 9.308998 -2.777710 0.208600
										CHANNELS 3 Xrotation Yrotation Zrotation
										JOINT LeftForeArm
										{
											OFFSET 29.972298 0.000000 0.000000
											CHANNELS 3 Xrotation Yrotation Zrotation
											JOINT LeftHand
											{
												OFFSET 26.026505 0.000000 0.000000
												CHANNELS 3 Xrotation Yrotation Zrotation
												End Site
												{
													OFFSET 0 0 0
												}
											}
										}
									}
								}
							}
						}
						JOINT RightShoulder_virtual
						{
							OFFSET 0.000000 0.000000 0.000000
							CHANNELS 3 Xrotation Yrotation Zrotation
							JOINT RightShoulder
							{
								OFFSET -7.570500 7.247704 -3.868750
								CHANNELS 3 Xrotation Yrotation Zrotation
								JOINT RightShoulder_split
								{
									OFFSET -7.570500 7.247704 -3.868750
									CHANNELS 3 Xrotation Yrotation Zrotation
									JOINT RightArm
									{
										OFFSET -9.308998 -2.777710 0.208500
										CHANNELS 3 Xrotation Yrotation Zrotation
										JOINT RightForeArm
										{
											OFFSET -29.972300 0.000000 0.000000
											CHANNELS 3 Xrotation Yrotation Zrotation
											JOINT RightHand
											{
												OFFSET -26.026505 0.000000 0.000000
												CHANNELS 3 Xrotation Yrotation Zrotation
												End Site
												{
													OFFSET 0 0 0
												}
											}
										}
									}
								}
							}
						}
					}
				}
			}
		}
	}
}
MOTION
Frames: 10
Frame Time: 0.03333333
2.433082 65.682159 -49.849251 0.000000 0.000000 0.000000 21.620119 -76.750296 19.337143 -39.359204 -9.591348 31.618547 75.823023 5.504937 -0.784196 -23.991360 9.283907 -32.981652 -6.505903 -3.385816 2.915129 0.000000 0.000000 0.000000 24.811021 -76.501329 22.776413 -50.766447 3.969749 -19.110379 80.049544 14.907907 -3.726821 -31.809789 -4.785025 4.056549 -1.348210 1.445463 1.166689 0.000000 0.000000 0.000000 30.803733 -80.870430 28.854462 6.840562 11.995338 -4.456926 10.854529 18.069134 -6.416021 0.787552 -6.721444 2.473624 0.000000 0.000000 0.000000 12.486939 17.927969 -7.872174 -0.002857 2.865611 2.311760 5.193379 3.790946 -7.020828 0.000000 0.000000 0.000000 10.109549 18.295099 -7.205483 4.656720 -4.119921 0.289532 3.917956 3.908244 -0.500682 -77.788662 -29.229060 -59.577957 51.624779 -74.683829 49.215140 0.000000 0.000000 0.000000 9.309887 18.360863 -6.624813 5.458464 9.103529 -1.657450 -3.676116 6.146903 -4.590253 -47.188011 -6.110745 29.390850 -15.371344 46.847031 0.480668 0.000000 0.000000 0.000000 
2.686779 65.251534 -50.147018 0.000000 0.000000 0.000000 33.153762 -73.742137 30.022028 -45.621501 -10.737609 32.259940 77.503714 4.821235 -1.422621 -23.393032 8.212985 -31.511658 -7.109742 -3.715247 2.916600 0.000000 0.000000 0.000000 33.601631 -73.882088 31.471247 -52.813721 4.145255 -19.994446 80.214889 15.244808 -1.228024 -34.684295 -4.836489 3.344571 0.642176 1.100157 0.742762 0.000000 0.000000 0.000000 40.664887 -77.149241 37.919841 7.211999 11.672652 -4.276175 11.506059 17.375306 -6.520707 1.098851 -7.223670 2.388445 0.000000 0.000000 0.000000 12.425396 17.363992 -7.595171 -0.126908 4.897808 2.715359 2.036866 6.861143 -10.570840 0.000000 0.000000 0.000000 10.507492 17.618750 -7.368931 3.710999 -4.545697 -1.799290 2.431726 3.739348 -1.099470 -63.367654 -20.726694 -54.577644 49.657190 -71.453102 46.223804 0.000000 0.000000 0.000000 9.661152 17.878558 -6.480268 4.840776 9.023981 1.406951 -3.146919 6.386798 -5.087778 -41.746936 -12.114941 30.020105 -14.935744 46.701091 4.224473 0.000000 0.000000 0.000000 
2.868525 65.370354 -50.226425 0.000000 0.000000 0.000000 40.962618 -70.964860 37.468963 -51.306984 -11.321691 32.135494 78.112857 3.945477 -1.727322 -22.023684 6.977753 -29.350532 -7.664291 -4.061877 2.774158 0.000000 0.000000 0.000000 39.364498 -71.261816 37.450433 -54.603298 5.266154 -21.336930 79.674375 16.024717 0.571765 -35.264957 -4.353033 4.841401 0.632459 0.839929 0.167138 0.000000 0.000000 0.000000 44.901626 -73.445953 41.580634 7.284999 11.386660 -3.636579 12.034133 16.683695 -6.419510 1.355573 -7.360588 1.993498 0.000000 0.000000 0.000000 12.252661 16.748691 -7.109052 -0.577428 6.765765 2.977747 -0.268482 10.011099 -13.948704 0.000000 0.000000 0.000000 10.809801 16.921198 -7.316980 3.076835 -4.071122 -3.317405 1.428840 3.357942 -1.698158 -49.531511 -11.799095 -51.573734 39.490658 -67.992518 36.057542 0.000000 0.000000 0.000000 9.955779 17.309668 -6.218815 4.437340 8.983125 4.061816 -2.282168 7.271319 -5.091918 -34.861378 -19.208514 32.476887 -14.496588 47.389714 6.980359 0.000000 0.000000 0.000000 
3.071801 65.637901 -50.353088 0.000000 0.000000 0.000000 44.621196 -68.494442 41.358704 -55.932662 -11.224527 31.169859 77.890111 2.925571 -1.600805 -20.181174 6.034616 -27.222043 -7.352459 -4.270373 2.493519 0.000000 0.000000 0.000000 42.649781 -68.917237 41.183582 -55.645995 7.098318 -22.728161 78.635401 16.867043 1.373656 -34.852618 -3.573610 7.696914 -0.326620 0.598813 -0.238395 0.000000 0.000000 0.000000 45.990891 -70.380400 42.502696 7.044898 11.114232 -2.722545 12.434666 16.021438 -6.196418 1.350639 -7.023351 1.775637 0.000000 0.000000 0.000000 11.996969 16.091207 -6.540637 -1.263418 8.355274 3.075663 -1.579162 12.772942 -16.854704 0.000000 0.000000 0.000000 11.049637 16.211427 -7.097369 2.702817 -3.094593 -4.190153 1.204059 2.650838 -2.208618 -36.819043 -4.030357 -51.690537 27.695696 -64.350361 24.773463 0.000000 0.000000 0.000000 10.286892 16.693901 -5.905575 4.146817 9.267243 6.530188 -1.487591 8.037452 -4.784279 -25.957767 -26.039806 37.189943 -13.889951 47.572988 8.512728 0.000000 0.000000 0.000000 
3.141144 65.881592 -50.298256 0.000000 0.000000 0.000000 44.343842 -66.381502 41.867888 -59.061247 -10.443977 29.509580 76.524053 1.931108 -1.160960 -17.991792 5.645831 -25.946470 -6.278450 -4.203782 2.051387 0.000000 0.000000 0.000000 43.411309 -66.744335 42.494015 -55.185818 9.050737 -23.916421 77.089722 16.948961 1.400438 -34.699485 -2.971054 10.045820 -0.706283 0.335083 -0.253779 0.000000 0.000000 0.000000 44.602218 -68.056606 41.461960 6.649309 10.749814 -1.882537 12.706124 15.364055 -5.958813 1.240134 -6.206134 1.657604 0.000000 0.000000 0.000000 11.758349 15.393774 -5.998581 -2.079426 9.613518 3.031401 -2.008653 14.860774 -19.079925 0.000000 0.000000 0.000000 11.254525 15.488554 -6.821925 2.489792 -1.998987 -4.499429 1.527577 2.019502 -2.611317 -25.997495 1.669558 -54.794165 17.641088 -60.360526 15.222245 0.000000 0.000000 0.000000 10.692626 16.038534 -5.587019 3.834782 9.871245 8.821349 -0.853429 8.504491 -4.236132 -16.182989 -31.250755 43.273808 -13.164470 46.458448 8.872741 0.000000 0.000000 0.000000 
3.166880 66.259125 -50.276329 0.000000 0.000000 0.000000 41.711292 -64.630733 40.361152 -60.597049 -9.152448 27.140861 74.121691 1.181185 -0.477345 -15.577375 5.718442 -25.494800 -4.871305 -3.899835 1.447966 0.000000 0.000000 0.000000 41.789263 -64.663901 41.521744 -53.000919 10.347810 -24.922641 75.089918 16.047401 1.210813 -35.041842 -2.912579 10.972247 0.060414 0.097340 0.058417 0.000000 0.000000 0.000000 41.554581 -66.201219 39.136332 6.292529 10.270414 -1.353848 12.876040 14.711546 -5.784529 1.024528 -5.545790 1.853114 0.000000 0.000000 0.000000 11.538272 14.694027 -5.543411 -2.881948 10.540455 2.851749 -1.717373 16.247454 -20.599851 0.000000 0.000000 0.000000 11.415284 14.771090 -6.556357 2.383813 -1.011150 -4.475397 1.638753 1.352274 -2.962276 -17.672080 5.245781 -59.544961 10.623972 -56.082864 8.438650 0.000000 0.000000 0.000000 11.070525 15.368875 -5.310180 3.400291 10.678536 10.893039 -0.400067 8.306447 -3.564589 -7.721060 -34.211960 49.124811 -12.478406 44.055338 8.366008 0.000000 0.000000 0.000000 
2.963378 66.999359 -50.084679 0.000000 0.000000 0.000000 37.693625 -63.138323 37.570767 -60.535570 -7.544171 24.501743 71.102829 0.756432 0.272402 -13.037650 5.829331 -25.300732 -3.526643 -3.512417 0.755400 0.000000 0.000000 0.000000 38.571738 -62.819818 39.010291 -49.369533 10.548998 -25.844379 72.608449 14.471059 0.975110 -35.743623 -3.436604 10.853955 1.359809 -0.042719 0.478535 0.000000 0.000000 0.000000 36.935078 -64.395030 35.494000 6.055222 9.675388 -1.241262 12.957542 14.050037 -5.679724 0.989819 -5.283505 2.133980 0.000000 0.000000 0.000000 11.360830 14.033132 -5.240017 -3.543997 11.110943 2.554185 -1.057274 16.995993 -21.368435 0.000000 0.000000 0.000000 11.557580 14.073489 -6.326113 2.284900 -0.249631 -4.372239 1.547231 0.838696 -3.256733 -12.213246 7.510436 -64.456591 6.823570 -52.039782 4.481043 0.000000 0.000000 0.000000 11.331482 14.728454 -5.061389 2.875936 11.404001 12.564371 -0.080372 7.536864 -2.806506 -2.170346 -35.398142 53.350013 -12.065874 41.223204 7.553095 0.000000 0.000000 0.000000 
2.692499 68.249733 -49.887222 0.000000 0.000000 0.000000 33.193808 -62.016745 34.193068 -59.090227 -5.834649 22.074073 67.843395 0.470829 0.944810 -10.589658 5.566743 -24.865022 -2.746754 -3.180069 0.106098 0.000000 0.000000 0.000000 34.086288 -61.193823 35.223723 -44.683357 9.523977 -26.762090 69.638655 12.559844 0.783719 -36.235765 -4.348952 10.471599 2.183163 -0.048963 0.758416 0.000000 0.000000 0.000000 31.932432 -62.499605 31.432435 5.975670 9.016956 -1.485991 12.944836 13.399971 -5.627226 1.039971 -5.299318 2.279937 0.000000 0.000000 0.000000 11.241116 13.428001 -5.068782 -4.002350 11.372415 2.175772 -0.397287 17.355958 -21.458036 0.000000 0.000000 0.000000 11.642287 13.413470 -6.132937 2.210719 0.370455 -4.484009 0.915756 0.687098 -3.823657 -9.372311 9.140713 -68.294324 5.528890 -48.364566 2.720794 0.000000 0.000000 0.000000 11.403965 14.105928 -4.855661 2.306253 11.840878 13.674619 0.603790 6.527522 -2.047328 0.390533 -35.437624 55.701381 -11.849412 38.885705 6.723627 0.000000 0.000000 0.000000 
2.323122 70.002022 -49.757484 0.000000 0.000000 0.000000 28.447347 -61.090264 30.222904 -56.731828 -4.242505 20.159867 64.584903 0.099737 1.444600 -8.584347 4.806409 -23.495893 -2.532787 -3.026787 -0.323872 0.000000 0.000000 0.000000 28.865332 -59.837962 30.582913 -39.412019 7.458559 -27.607971 66.267301 10.808738 0.656089 -36.136608 -5.337317 10.557185 2.247579 0.066693 0.802803 0.000000 0.000000 0.000000 26.998718 -60.529287 27.179063 5.931831 8.369140 -1.874577 12.818636 12.779293 -5.551743 1.100298 -5.395224 2.187777 0.000000 0.000000 0.000000 11.129021 12.869264 -4.986677 -4.273652 11.288389 1.774425 0.019460 17.506782 -20.971459 0.000000 0.000000 0.000000 11.635196 12.800612 -5.911994 2.180525 0.998672 -4.922013 0.314376 0.752251 -4.201649 -8.207582 10.186683 -70.310118 5.708827 -45.008344 2.259843 0.000000 0.000000 0.000000 11.260380 13.492788 -4.689409 1.780247 11.953194 14.218164 1.637887 5.413771 -1.347682 1.189446 -34.744899 56.991771 -11.554499 37.544399 5.999248 0.000000 0.000000 0.000000 
1.846982 72.132622 -49.605507 0.000000 0.000000 0.000000 23.294394 -60.075264 25.383259 -53.804829 -2.839395 18.939015 61.169904 -0.373234 1.675476 -7.213861 3.761360 -21.086049 -2.462879 -3.066596 -0.494935 0.000000 0.000000 0.000000 23.224499 -58.539666 25.251049 -33.870157 4.845676 -28.089728 62.242865 9.341063 0.511264 -35.584029 -6.137236 11.245528 2.000919 0.239306 0.690881 0.000000 0.000000 0.000000 22.223964 -58.685832 22.713613 5.864740 7.787854 -2.205614 12.593691 12.183028 -5.389330 1.141795 -5.060603 1.962265 0.000000 0.000000 0.000000 11.034154 12.322435 -4.923968 -4.427835 10.903027 1.431573 0.000252 17.554431 -19.986339 0.000000 0.000000 0.000000 11.516472 12.220240 -5.608349 2.186436 1.631792 -5.634786 -0.181904 0.907386 -4.200627 -7.942929 10.485356 -70.537057 6.540732 -42.080983 2.375654 0.000000 0.000000 0.000000 10.975452 12.876434 -4.522996 1.361414 11.795268 14.261362 2.736062 4.414417 -0.746244 1.626721 -33.747760 58.076190 -11.046066 37.212476 5.414364 0.000000 0.000000 0.000000 
